<svg xmlns="http://www.w3.org/2000/svg" viewBox="0 0 462.47 350.96"><defs><style>.cls-1{fill:#eef2e0;}.cls-2{fill:#77bdc3;}.cls-3{fill:none;}</style></defs><g id="Layer_2" data-name="Layer 2"><g id="Layer_3" data-name="Layer 3"><path class="cls-1" d="M292.24,128a5.06,5.06,0,0,1-1.48-.22,5.16,5.16,0,0,1-3.6-5.83.05.05,0,0,0-.05-.07c-3.17-.14-6.31-.75-7.26-2.41-1.28-2.23-.83-9.28,6.19-8.24a5.19,5.19,0,0,0,4.33-.2s0,0,0,0L305.92,59.1A126.21,126.21,0,0,1,317.54,33c6.27-10.45,11.28-14.42,16.24-12.88a7.24,7.24,0,0,1,4.44,4.09c3.61,7.77-.56,29.08-6.57,43.35C323.14,87.79,316.54,100,302.06,115a29.15,29.15,0,0,1-2.86,2.6s0,0,0,0l-2,6.72A5.15,5.15,0,0,1,292.24,128Zm37-94c0-.06-.07-.08-.1,0A108.47,108.47,0,0,0,315.78,62.1L306.3,93.8c0,.06.07.1.1,0,6.09-8.6,10.45-17.67,15.76-30.29A96.55,96.55,0,0,0,329.26,34Z"/><path class="cls-1" d="M313.67,114.55a11.8,11.8,0,0,1-8.08-2.94c-2.73-2.46-4.07-6.18-3.78-10.49a5.27,5.27,0,0,1,4.68-5,5.16,5.16,0,0,1,5.61,5.55,3.15,3.15,0,0,0,.39,2.27c1.11,1,6.86-.34,12.21-6.26s6.06-11.79,5-12.79c-.63-.57-3.58-.49-7.59,2.21a5.4,5.4,0,0,1-7.23-.89A5.16,5.16,0,0,1,316,78.81c7.79-5.39,15.68-6,20.6-1.56,6.43,5.8,4.62,17.55-4.21,27.35C326.55,111,319.58,114.55,313.67,114.55Z"/><path class="cls-1" d="M327.82,131.91c-14.13,0-25.66-10-25.85-22.3a5.29,5.29,0,0,1,4.25-5.4,5.16,5.16,0,0,1,6,5.08c0,6.79,7,12.32,15.55,12.32s15.45-5.44,15.56-12.16a5.32,5.32,0,0,1,4.52-5.28,5.16,5.16,0,0,1,5.79,5.12C353.69,121.76,342.08,131.91,327.82,131.91Z"/><path class="cls-1" d="M247.64,138.26a13.75,13.75,0,0,1-10.77-5.11c-3.81-4.62-5.11-11.56-3.55-19.06,2.58-12.45,12.21-22.31,21.92-22.45h.2a13.73,13.73,0,0,1,10.77,5.12c3.81,4.61,5.11,11.56,3.55,19h0c-2.58,12.46-12.21,22.32-21.92,22.45Zm7.8-36.34h-.06c-4.29.06-10.28,5.93-12,14.26-1.07,5.13,0,8.75,1.41,10.43A3.36,3.36,0,0,0,247.7,128c4.29-.06,10.28-5.93,12-14.26h0c1.07-5.14,0-8.76-1.41-10.43A3.48,3.48,0,0,0,255.44,101.92Zm9.29,12.85h0Z"/><path class="cls-1" d="M149.5,154a4.89,4.89,0,0,1-1.3-.17,5.13,5.13,0,0,1-3.67-6.26L157.3,98.63a5.14,5.14,0,0,1,9.94,2.6l-12.77,48.93A5.14,5.14,0,0,1,149.5,154Z"/><path class="cls-1" d="M183.29,147.2a5.22,5.22,0,0,1-1.55-.24,5.13,5.13,0,0,1-3.34-6.45l7.53-23.7c.64-4.29-.24-8.3-2.44-11a8.2,8.2,0,0,0-6.1-3.17h-.46c-5,0-10.16,4-12.74,10a5.13,5.13,0,1,1-9.42-4.09c4.4-10.13,13.72-16.61,23.14-16.13a18.44,18.44,0,0,1,13.59,7c4.09,5.09,5.73,12.2,4.51,19.51l-.17.7-7.65,24.07A5.14,5.14,0,0,1,183.29,147.2Z"/><path class="cls-1" d="M211.45,145.32a5.32,5.32,0,0,1-1.3-.16,5.14,5.14,0,0,1-3.67-6.27l5.4-20.75c1-5.07-.07-8.65-1.44-10.31a3.48,3.48,0,0,0-2.85-1.38h-.06c-3.54,0-8.68,4.28-11.16,11.27-.21.59-.4,1.19-.56,1.78-.1.39-.2.8-.28,1.2a5.14,5.14,0,1,1-10.06-2.07c.12-.59.26-1.18.41-1.76.23-.86.5-1.73.8-2.59,3.75-10.54,12.26-18,20.71-18.1h.2a13.74,13.74,0,0,1,10.77,5.12c3.81,4.62,5.11,11.56,3.55,19l0,.25-5.44,20.89A5.14,5.14,0,0,1,211.45,145.32Z"/><path class="cls-1" d="M378.91,121.55a22.28,22.28,0,0,1-7.48-1.28,14.49,14.49,0,0,1-7.38-6.73c-3.81-8-3.93-23.2,7.15-41.79,3.11-5.23,6.55-8.24,10.52-9.2a12.52,12.52,0,0,1,9.78,1.89c3.77,2.34,11.58,9.67,2.64,27.2-4.28,8.39-11.22,14.2-17.7,14.81a5.12,5.12,0,0,1-4.3-1.67,14.29,14.29,0,0,0,1.19,4.35,5.41,5.41,0,0,0,1.64,1.5c4.27,1.5,9.45.37,14.46-3.24,5.58-4,10.14-10.45,12.85-18.12A5.14,5.14,0,1,1,412,92.69c-3.4,9.63-9.27,17.82-16.54,23C390.09,119.58,384.41,121.55,378.91,121.55Zm5.46-49a.78.78,0,0,0-.22,0c-.82.2-2.34,1.48-4.12,4.48a57.47,57.47,0,0,0-7.74,20.73,5.1,5.1,0,0,1,3.18-1.51c2.45-.24,6.61-3.55,9.52-9.25,1.68-3.31,5.17-11.28,1.1-13.8A3.68,3.68,0,0,0,384.37,72.5Z"/><path class="cls-1" d="M391.17,214.68a24,24,0,0,1-8-1.36,15.08,15.08,0,0,1-7.33-6.23c-5.2-9.48-2.94-24.53,5.73-38.34,7.14-11.37,15.46-8.81,19.78-6.27,8,4.73,9.31,14.22,3.4,25.38-4.05,7.63-10.84,12.79-17.31,13.12a5.22,5.22,0,0,1-3.54-1.17,11.21,11.21,0,0,0,1,2.35,6,6,0,0,0,1.81,1.5c9.69,3.42,21.44-4.56,26.12-17.81a5.13,5.13,0,1,1,9.68,3.42C417,204.64,404,214.68,391.17,214.68Zm3.05-44.08c-1,0-2.19.82-4,3.62a44.56,44.56,0,0,0-6.78,18.06,5.11,5.11,0,0,1,3.42-1.56c2.34-.12,6.21-2.85,8.76-7.67,2.21-4.17,4.09-9.59.47-11.71A3.9,3.9,0,0,0,394.22,170.6Z"/><path class="cls-1" d="M333.28,229.93a11.09,11.09,0,0,1-3.12-.44c-9.54-2.72-13.21-17.14-8.52-33.52a5.13,5.13,0,1,1,9.87,2.82c-3.29,11.52-.88,20.15,1.47,20.83s9-5.39,12.25-16.91l.06-.18,6-18.43a5.14,5.14,0,1,1,9.77,3.19l-6,18.33C350.89,220.19,341.92,229.93,333.28,229.93Z"/><path class="cls-1" d="M311.77,292.16a12.53,12.53,0,0,1-3.41-.48c-4.18-1.2-9.62-5.18-11.76-17.36a5.14,5.14,0,1,1,10.12-1.78c1.09,6.21,3.09,8.87,4.47,9.26,4.73,1.34,19.08-13.59,28.32-45.87l12.68-51.46a5.14,5.14,0,1,1,10,2.46l-12.76,51.73C341.52,266.26,326.46,292.16,311.77,292.16Z"/><path class="cls-1" d="M239.81,277H216.28a5.14,5.14,0,1,1,0-10.27h23.53a71.12,71.12,0,0,0,9.81-.68c28.63-4,49.41-24.57,49.41-48.92,0-27.35-26.56-49.6-59.22-49.6s-59.21,22.25-59.21,49.6a5.14,5.14,0,0,1-10.28,0c0-33,31.18-59.88,69.49-59.88s69.5,26.86,69.5,59.88c0,29.52-24.51,54.38-58.27,59.1A82.33,82.33,0,0,1,239.81,277Z"/><path class="cls-1" d="M194.7,351a5.23,5.23,0,0,1-1.45-.2,5.15,5.15,0,0,1-3.49-6.38l45.12-154.6a5.14,5.14,0,0,1,9.87,2.88l-45.13,154.6A5.12,5.12,0,0,1,194.7,351Z"/><path class="cls-1" d="M304.8,330.78a35.28,35.28,0,0,1-19.92-6l-.32-.22c-12.93-9.18-34.39-46.26-36.8-50.49a5.13,5.13,0,1,1,8.91-5.1c6.3,11,24.67,40.93,34,47.3l.2.14c6.36,4.19,14.47,5.17,22.86,2.75,9.77-2.81,18.23-9.94,22.07-18.61a5.14,5.14,0,0,1,9.39,4.16c-5.11,11.54-15.81,20.64-28.62,24.33A42.52,42.52,0,0,1,304.8,330.78Z"/><path class="cls-1" d="M79.89,298.73a79.9,79.9,0,0,1,0-159.79,5.14,5.14,0,0,1,0,10.28,69.62,69.62,0,1,0,69.62,69.62c0-19.58-8.91-38-26.49-54.68-1.62-1.46-25-22.93-28.36-45.1-3.59-23.44,6.7-47.79,25-59.21,12.42-7.75,22.59-7.6,28.92-6.1a29.29,29.29,0,0,1,18,12.68,5.14,5.14,0,1,1-8.75,5.39,19,19,0,0,0-11.63-8.07c-6.46-1.52-13.57.1-21.14,4.81-14.95,9.32-23.3,29.44-20.31,48.94,2.89,18.83,24.91,38.87,25.13,39.07l.1.09c19.45,18.47,29.74,40,29.74,62.18A80,80,0,0,1,79.89,298.73Z"/><path class="cls-1" d="M297.21,147.1l6.14-.56,8.28,16.59-6.29.57-1.13-2.44-5.47.5-.62,2.6-6.12.56Zm3.53,5.73-1,4.38,2.8-.25Z"/><path class="cls-1" d="M320.87,144.94l5.76-.52,5.71,8.27h.09l-1-8.7,5.49-.5,1.57,17.2-5.91.54L327,153.44h-.1l1,8.19-5.49.5Z"/><path class="cls-1" d="M351.26,159.52l-1.57-17.21,6.42-.58a18.37,18.37,0,0,1,3.93,0,9.18,9.18,0,0,1,3.41,1.09,7.19,7.19,0,0,1,2.51,2.4,10.19,10.19,0,0,1,.77,8,7.85,7.85,0,0,1-1.93,2.91,9.37,9.37,0,0,1-3,1.85,13.41,13.41,0,0,1-3.65.85Zm4.44-12.81.67,7.32,1.07-.1a4.83,4.83,0,0,0,3.05-1.17,3.5,3.5,0,0,0,.83-3,3.24,3.24,0,0,0-1.33-2.51,4.37,4.37,0,0,0-3-.66Z"/><path class="cls-2" d="M169,348.15H61.06A5.14,5.14,0,0,1,55.93,343V315.8a5.14,5.14,0,1,1,10.27,0v22.08H169a5.14,5.14,0,1,1,0,10.27Z"/><path class="cls-2" d="M398.94,348.15H221.76a5.14,5.14,0,1,1,0-10.27h172V236.35a5.14,5.14,0,0,1,10.28,0V343A5.14,5.14,0,0,1,398.94,348.15Z"/><path class="cls-2" d="M61.06,123.11A5.14,5.14,0,0,1,55.93,118V5.14A5.14,5.14,0,0,1,61.06,0H398.94a5.14,5.14,0,0,1,5.14,5.14V48a5.14,5.14,0,1,1-10.28,0V10.27H66.2V118A5.14,5.14,0,0,1,61.06,123.11Z"/><rect class="cls-3" x="404.6" y="33.96" width="57.87" height="286.87"/></g></g></svg>